<svg width="69" height="69" viewBox="0 0 69 69" fill="none" xmlns="http://www.w3.org/2000/svg">
<path d="M34.5 0C25.35 0 16.5748 3.63481 10.1048 10.1048C3.63481 16.5748 0 25.35 0 34.5C0 43.65 3.63481 52.4252 10.1048 58.8952C16.5748 65.3652 25.35 69 34.5 69C43.65 69 52.4252 65.3652 58.8952 58.8952C65.3652 52.4252 69 43.65 69 34.5C69 25.35 65.3652 16.5748 58.8952 10.1048C52.4252 3.63481 43.65 0 34.5 0ZM28.0312 28.0312C28.0312 29.175 27.5769 30.2719 26.7681 31.0806C25.9594 31.8894 24.8625 32.3438 23.7188 32.3438C22.575 32.3438 21.4781 31.8894 20.6694 31.0806C19.8606 30.2719 19.4062 29.175 19.4062 28.0312C19.4062 26.8875 19.8606 25.7906 20.6694 24.9819C21.4781 24.1731 22.575 23.7188 23.7188 23.7188C24.8625 23.7188 25.9594 24.1731 26.7681 24.9819C27.5769 25.7906 28.0312 26.8875 28.0312 28.0312ZM45.2812 23.7188C46.425 23.7188 47.5219 24.1731 48.3306 24.9819C49.1394 25.7906 49.5938 26.8875 49.5938 28.0312C49.5938 29.175 49.1394 30.2719 48.3306 31.0806C47.5219 31.8894 46.425 32.3438 45.2812 32.3438C44.1375 32.3438 43.0406 31.8894 42.2319 31.0806C41.4231 30.2719 40.9688 29.175 40.9688 28.0312C40.9688 26.8875 41.4231 25.7906 42.2319 24.9819C43.0406 24.1731 44.1375 23.7188 45.2812 23.7188ZM46.5879 43.125H50.025C50.5969 43.125 51.1453 43.3522 51.5497 43.7565C51.9541 44.1609 52.1813 44.7094 52.1813 45.2812C52.1813 45.8531 51.9541 46.4016 51.5497 46.806C51.1453 47.2103 50.5969 47.4375 50.025 47.4375H46.5879C41.9434 47.4375 37.4023 48.8132 33.5383 51.3878C33.303 51.5546 33.0366 51.6726 32.7548 51.7346C32.4731 51.7966 32.1818 51.8015 31.8981 51.7489C31.6145 51.6964 31.3442 51.5874 31.1035 51.4285C30.8627 51.2696 30.6562 51.064 30.4963 50.8239C30.3365 50.5838 30.2264 50.314 30.1726 50.0305C30.1189 49.7471 30.1225 49.4558 30.1834 49.1738C30.2443 48.8918 30.3611 48.6249 30.527 48.3889C30.6929 48.1529 30.9045 47.9525 31.1492 47.7997C35.7212 44.7517 41.0931 43.1251 46.5879 43.125Z" fill="#FCD452"/>
</svg>
